<svg width="1512" height="982" viewBox="0 0 1512 982" fill="none" xmlns="http://www.w3.org/2000/svg">
<path opacity="0.0144928" d="M1452.23 1593.65C1461.29 1598.45 1472.43 1596.69 1479.55 1589.32L1705.89 1355.24C1710.1 1350.88 1712.42 1345.04 1712.35 1338.97L1706.73 872.909C1706.67 868.142 1705.14 863.511 1702.33 859.656L1462.19 529.549C1457.1 522.559 1448.53 519.011 1439.99 520.363L1159.54 564.782C1151 566.134 1143.94 572.159 1141.27 580.378L1014.88 968.537C1013.41 973.07 1013.37 977.95 1014.79 982.501L1153.47 1427.49C1155.28 1433.28 1159.29 1438.12 1164.65 1440.96L1452.23 1593.65Z" stroke="url(#paint0_linear_1_19)" stroke-width="4"/>
<path opacity="0.0289855" d="M1401.08 1592.16C1409.86 1597.4 1421.04 1596.23 1428.53 1589.27L1665.45 1369.33C1669.9 1365.2 1672.53 1359.47 1672.78 1353.41L1691.61 891.976C1691.8 887.198 1690.5 882.478 1687.89 878.473L1466.81 539.496C1462.09 532.265 1453.73 528.284 1445.14 529.187L1164.43 558.691C1155.84 559.593 1148.49 565.227 1145.38 573.28L999.604 950.815C997.882 955.276 997.593 960.163 998.777 964.795L1113.13 1412.23C1114.63 1418.11 1118.4 1423.16 1123.61 1426.27L1401.08 1592.16Z" stroke="url(#paint1_linear_1_19)" stroke-width="4"/>
<path opacity="0.0434783" d="M1350.32 1589.12C1358.8 1594.79 1369.99 1594.2 1377.83 1587.68L1624.47 1382.33C1629.14 1378.44 1632.09 1372.85 1632.65 1366.8L1675.43 911.271C1675.88 906.496 1674.82 901.7 1672.41 897.555L1470.66 550.788C1466.32 543.336 1458.19 538.935 1449.58 539.386L1169.39 554.07C1160.78 554.521 1153.15 559.749 1149.61 567.613L985.215 933.569C983.25 937.944 982.701 942.824 983.646 947.526L1073.8 1396.09C1075 1402.05 1078.51 1407.29 1083.56 1410.67L1350.32 1589.12Z" stroke="url(#paint2_linear_1_19)" stroke-width="4"/>
<path opacity="0.057971" d="M1300.04 1584.56C1308.19 1590.64 1319.37 1590.64 1327.52 1584.56L1583.02 1394.22C1587.91 1390.58 1591.15 1385.16 1592.03 1379.13L1658.19 930.737C1658.89 925.977 1658.09 921.117 1655.88 916.841L1473.67 563.37C1469.72 555.717 1461.83 550.909 1453.22 550.909L1174.34 550.909C1165.73 550.909 1157.84 555.717 1153.9 563.37L971.683 916.841C969.478 921.117 968.67 925.977 969.373 930.737L1035.53 1379.13C1036.42 1385.16 1039.66 1390.58 1044.54 1394.22L1300.04 1584.56Z" stroke="url(#paint3_linear_1_19)" stroke-width="4"/>
<path opacity="0.0724638" d="M1250.31 1578.54C1258.13 1585 1269.25 1585.58 1277.7 1579.97L1541.16 1404.99C1546.24 1401.62 1549.77 1396.36 1550.98 1390.39L1639.89 950.313C1640.84 945.583 1640.29 940.671 1638.3 936.274L1475.77 577.184C1472.22 569.351 1464.6 564.15 1456.02 563.7L1179.2 549.192C1170.62 548.742 1162.5 553.119 1158.15 560.538L958.974 900.672C956.535 904.837 955.468 909.663 955.924 914.468L998.345 1361.42C998.921 1367.49 1001.89 1373.09 1006.58 1376.97L1250.31 1578.54Z" stroke="url(#paint4_linear_1_19)" stroke-width="4"/>
<path opacity="0.0869565" d="M1228.22 1571.08C1235.67 1577.91 1246.71 1579.07 1255.43 1573.94L1525.95 1414.63C1531.22 1411.53 1535.03 1406.47 1536.55 1400.55L1647.53 969.941C1648.73 965.253 1648.43 960.303 1646.66 955.796L1503.9 592.169C1500.76 584.176 1493.43 578.597 1484.89 577.7L1210.9 548.901C1202.36 548.004 1194.03 551.937 1189.3 559.103L974.053 885.102C971.385 889.143 970.06 893.922 970.268 898.759L989.285 1343.03C989.547 1349.13 992.224 1354.88 996.728 1359.01L1228.22 1571.08Z" stroke="url(#paint5_linear_1_19)" stroke-width="4"/>
<path opacity="0.101449" d="M1179.83 1562.24C1186.91 1569.42 1197.83 1571.15 1206.78 1566.51L1483.46 1423.13C1488.89 1420.32 1492.98 1415.45 1494.81 1409.62L1627.1 989.564C1628.56 984.931 1628.52 979.955 1626.97 975.35L1504.01 608.26C1501.29 600.13 1494.27 594.19 1485.8 592.848L1215.35 550.013C1206.88 548.672 1198.37 552.152 1193.26 559.043L962.882 870.168C959.991 874.071 958.411 878.79 958.367 883.647L954.378 1324.02C954.323 1330.14 956.706 1336.03 961.002 1340.38L1179.83 1562.24Z" stroke="url(#paint6_linear_1_19)" stroke-width="4"/>
<path opacity="0.115942" d="M1132.21 1552.08C1138.89 1559.59 1149.68 1561.88 1158.84 1557.74L1440.74 1430.48C1446.33 1427.96 1450.67 1423.32 1452.82 1417.58L1605.63 1009.12C1607.34 1004.56 1607.55 999.57 1606.24 994.877L1503.04 625.391C1500.74 617.145 1494.05 610.86 1485.67 609.08L1219.48 552.5C1211.11 550.72 1202.44 553.738 1196.98 560.335L952.422 855.903C949.315 859.658 947.481 864.302 947.185 869.166L920.649 1304.46C920.276 1310.58 922.359 1316.59 926.435 1321.17L1132.21 1552.08Z" stroke="url(#paint7_linear_1_19)" stroke-width="4"/>
<path opacity="0.130435" d="M1085.42 1540.65C1091.7 1548.46 1102.32 1551.3 1111.66 1547.68L1397.87 1436.7C1403.59 1434.48 1408.19 1430.06 1410.64 1424.44L1583.12 1028.56C1585.07 1024.08 1585.55 1019.09 1584.47 1014.32L1500.96 643.492C1499.08 635.152 1492.73 628.542 1484.47 626.329L1223.23 556.33C1214.97 554.118 1206.17 556.668 1200.37 562.951L942.632 842.341C939.317 845.935 937.233 850.491 936.683 855.35L888.119 1284.43C887.429 1290.53 889.204 1296.65 893.05 1301.43L1085.42 1540.65Z" stroke="url(#paint8_linear_1_19)" stroke-width="4"/>
<path opacity="0.144928" d="M1066.54 1528C1072.4 1536.09 1082.81 1539.47 1092.31 1536.37L1381.89 1441.76C1387.74 1439.85 1392.57 1435.69 1395.32 1430.19L1586.58 1047.82C1588.78 1043.44 1589.51 1038.46 1588.68 1033.63L1524.7 662.493C1523.25 654.081 1517.26 647.164 1509.14 644.526L1253.52 561.471C1245.41 558.833 1236.49 560.908 1230.38 566.862L960.471 829.511C956.955 832.933 954.625 837.389 953.822 842.228L883.805 1263.99C882.799 1270.05 884.261 1276.27 887.866 1281.24L1066.54 1528Z" stroke="url(#paint9_linear_1_19)" stroke-width="4"/>
<path opacity="0.15942" d="M1021.61 1514.2C1027.04 1522.55 1037.22 1526.46 1046.84 1523.88L1338.89 1445.69C1344.83 1444.1 1349.89 1440.19 1352.93 1434.84L1562.03 1066.86C1564.47 1062.58 1565.46 1057.63 1564.87 1052.74L1520.24 682.32C1519.22 673.858 1513.6 666.653 1505.65 663.599L1256.3 567.882C1248.34 564.828 1239.34 566.424 1232.92 572.03L951.895 817.441C948.187 820.679 945.616 825.021 944.559 829.829L853.721 1243.21C852.4 1249.22 853.544 1255.51 856.898 1260.68L1021.61 1514.2Z" stroke="url(#paint10_linear_1_19)" stroke-width="4"/>
<path opacity="0.173913" d="M977.693 1499.31C982.675 1507.9 992.607 1512.32 1002.32 1510.27L1295.9 1448.5C1301.94 1447.23 1307.21 1443.59 1310.53 1438.4L1536.5 1085.6C1539.16 1081.44 1540.42 1076.54 1540.07 1071.61L1514.53 702.898C1513.95 694.408 1508.72 686.937 1500.94 683.475L1258.48 575.524C1250.71 572.062 1241.66 573.176 1234.95 578.42L943.859 806.155C939.969 809.199 937.161 813.415 935.853 818.178L824.875 1222.17C823.241 1228.11 824.064 1234.47 827.158 1239.8L977.693 1499.31Z" stroke="url(#paint11_linear_1_19)" stroke-width="4"/>
<path opacity="0.188406" d="M934.837 1483.4C939.365 1492.2 949.016 1497.12 958.798 1495.61L1253 1450.19C1259.11 1449.24 1264.58 1445.89 1268.18 1440.87L1509.99 1104.01C1512.88 1099.98 1514.4 1095.13 1514.3 1090.18L1507.56 724.15C1507.4 715.655 1502.57 707.938 1495 704.081L1260.02 584.35C1252.45 580.493 1243.37 581.123 1236.4 585.99L936.318 795.677C932.255 798.516 929.217 802.592 927.659 807.298L797.271 1200.93C795.329 1206.79 795.826 1213.19 798.652 1218.68L934.837 1483.4Z" stroke="url(#paint12_linear_1_19)" stroke-width="4"/>
<path opacity="0.202899" d="M893.088 1466.54C897.153 1475.52 906.498 1480.92 916.316 1479.95L1210.25 1450.78C1216.4 1450.17 1222.05 1447.1 1225.92 1442.27L1482.55 1122.03C1485.66 1118.15 1487.43 1113.37 1487.59 1108.39L1499.29 746C1499.56 737.522 1495.14 729.581 1487.8 725.34L1260.86 594.315C1253.51 590.073 1244.42 590.22 1237.22 594.696L929.226 786.024C925 788.65 921.739 792.574 919.933 797.209L770.911 1179.57C768.664 1185.34 768.835 1191.76 771.384 1197.4L893.088 1466.54Z" stroke="url(#paint13_linear_1_19)" stroke-width="4"/>
<path opacity="0.217391" d="M879.487 1448.79C883.081 1457.95 892.097 1463.8 901.921 1463.36L1194.69 1450.29C1200.88 1450.01 1206.7 1447.25 1210.82 1442.62L1481.19 1139.62C1484.51 1135.9 1486.53 1131.19 1486.94 1126.21L1516.69 768.37C1517.39 759.93 1513.4 751.788 1506.3 747.175L1287.93 605.366C1280.83 600.754 1271.77 600.418 1264.34 604.492L949.535 777.216C945.158 779.618 941.681 783.379 939.63 787.931L772.791 1158.16C770.245 1163.81 770.087 1170.25 772.353 1176.02L879.487 1448.79Z" stroke="url(#paint14_linear_1_19)" stroke-width="4"/>
<path opacity="0.231884" d="M840.07 1430.24C843.189 1439.53 851.852 1445.83 861.652 1445.92L1152.39 1448.73C1158.59 1448.79 1164.56 1446.34 1168.94 1441.94L1451.94 1156.72C1455.47 1153.17 1457.74 1148.55 1458.41 1143.59L1505.77 791.18C1506.89 782.801 1503.33 774.479 1496.49 769.51L1287.2 617.453C1280.36 612.483 1271.35 611.667 1263.72 615.327L943.199 769.266C938.681 771.435 934.996 775.021 932.704 779.477L748.905 1136.77C746.065 1142.29 745.578 1148.72 747.553 1154.61L840.07 1430.24Z" stroke="url(#paint15_linear_1_19)" stroke-width="4"/>
<path opacity="0.246377" d="M801.872 1410.96C804.509 1420.36 812.799 1427.07 822.546 1427.7L1110.39 1446.15C1116.6 1446.55 1122.7 1444.41 1127.31 1440.24L1421.84 1173.3C1425.57 1169.92 1428.09 1165.42 1429.01 1160.47L1493.49 814.352C1495.04 806.055 1491.91 797.577 1485.35 792.266L1285.61 630.519C1279.05 625.207 1270.11 623.915 1262.32 627.152L937.168 762.185C932.522 764.115 928.638 767.514 926.108 771.862L726.241 1115.46C723.114 1120.83 722.297 1127.25 723.977 1133.24L801.872 1410.96Z" stroke="url(#paint16_linear_1_19)" stroke-width="4"/>
<path opacity="0.26087" d="M764.919 1391.01C767.072 1400.5 774.967 1407.61 784.632 1408.76L1068.76 1442.55C1074.94 1443.29 1081.16 1441.49 1086 1437.55L1390.93 1189.3C1394.85 1186.12 1397.6 1181.73 1398.78 1176.82L1479.86 837.807C1481.82 829.613 1479.14 821.003 1472.88 815.365L1283.12 644.507C1276.86 638.869 1268.02 637.106 1260.07 639.912L931.395 755.984C926.634 757.666 922.558 760.867 919.797 765.095L704.784 1094.31C701.377 1099.52 700.232 1105.9 701.611 1111.97L764.919 1391.01Z" stroke="url(#paint17_linear_1_19)" stroke-width="4"/>
<path opacity="0.275362" d="M729.235 1370.48C730.902 1380.04 738.384 1387.52 747.938 1389.19L1027.53 1437.98C1033.68 1439.05 1040 1437.58 1045.04 1433.9L1359.24 1204.7C1363.33 1201.71 1366.32 1197.45 1367.75 1192.59L1464.87 861.466C1467.24 853.395 1465.01 844.676 1459.06 838.729L1279.69 659.357C1273.74 653.41 1265.02 651.183 1256.95 653.551L925.831 750.669C920.967 752.095 916.711 755.089 913.723 759.184L684.515 1073.38C680.837 1078.42 679.366 1084.74 680.439 1090.89L729.235 1370.48Z" stroke="url(#paint18_linear_1_19)" stroke-width="4"/>
<path opacity="0.289855" d="M694.839 1349.45C696.02 1359.04 703.07 1366.87 712.486 1369.05L986.768 1432.46C992.859 1433.87 999.261 1432.74 1004.5 1429.33L1326.8 1219.44C1331.07 1216.66 1334.29 1212.55 1335.97 1207.74L1448.52 885.25C1451.29 877.324 1449.52 868.52 1443.9 862.281L1275.28 675.01C1269.66 668.772 1261.09 666.089 1252.92 668.012L920.428 746.243C915.475 747.408 911.048 750.184 907.84 754.134L665.413 1052.73C661.472 1057.59 659.677 1063.83 660.441 1070.04L694.839 1349.45Z" stroke="url(#paint19_linear_1_19)" stroke-width="4"/>
<path opacity="0.304348" d="M661.746 1327.98C662.441 1337.59 669.044 1345.74 678.293 1348.42L946.505 1426.03C952.521 1427.77 958.987 1426.98 964.41 1423.85L1293.67 1233.49C1298.09 1230.94 1301.54 1226.98 1303.46 1222.25L1430.83 909.082C1433.98 901.32 1432.67 892.455 1427.4 885.943L1269.86 691.403C1264.59 684.891 1256.19 681.762 1247.94 683.236L915.138 742.708C910.109 743.606 905.522 746.154 902.101 749.949L647.451 1032.44C643.258 1037.09 641.143 1043.25 641.595 1049.5L661.746 1327.98Z" stroke="url(#paint20_linear_1_19)" stroke-width="4"/>
<path opacity="0.318841" d="M656.966 1306.17C657.177 1315.76 663.318 1324.21 672.374 1327.37L933.788 1418.72C939.712 1420.79 946.223 1420.35 951.815 1417.5L1286.88 1246.83C1291.45 1244.5 1295.11 1240.71 1297.28 1236.06L1438.79 932.885C1442.33 925.307 1441.47 916.405 1436.56 909.638L1290.4 708.473C1285.48 701.706 1277.28 698.142 1268.98 699.164L936.913 740.062C931.822 740.689 927.086 743 923.459 746.628L657.601 1012.55C653.164 1016.99 650.734 1023.05 650.872 1029.32L656.966 1306.17Z" stroke="url(#paint21_linear_1_19)" stroke-width="4"/>
<path opacity="0.333333" d="M626.505 1284.07C626.235 1293.63 631.9 1302.35 640.736 1305.99L894.659 1410.57C900.471 1412.97 907.01 1412.88 912.755 1410.33L1252.47 1259.41C1257.18 1257.32 1261.05 1253.71 1263.46 1249.16L1418.43 956.585C1422.34 949.208 1421.94 940.294 1417.39 933.293L1282.87 726.153C1278.33 719.153 1270.35 715.165 1262.02 715.734L931.705 738.302C926.566 738.653 921.694 740.719 917.869 744.169L641.829 993.136C637.161 997.346 634.42 1003.28 634.243 1009.57L626.505 1284.07Z" stroke="url(#paint22_linear_1_19)" stroke-width="4"/>
<path opacity="0.347826" d="M597.362 1261.78C596.618 1271.27 601.795 1280.24 610.386 1284.34L856.155 1401.63C861.839 1404.34 868.386 1404.6 874.27 1402.36L1217.5 1271.22C1222.33 1269.37 1226.4 1265.95 1229.05 1261.51L1396.76 980.107C1401.02 972.95 1401.09 964.047 1396.92 956.832L1274.26 744.381C1270.1 737.166 1262.36 732.768 1254.02 732.883L926.468 737.421C921.296 737.492 916.299 739.305 912.284 742.567L627.101 974.248C622.213 978.219 619.167 984.021 618.674 990.299L597.362 1261.78Z" stroke="url(#paint23_linear_1_19)" stroke-width="4"/>
<path opacity="0.362319" d="M569.536 1239.37C568.322 1248.77 573.002 1257.96 581.323 1262.5L818.312 1391.93C823.85 1394.95 830.387 1395.57 836.393 1393.63L1182.01 1282.22C1186.96 1280.63 1191.21 1277.41 1194.1 1273.08L1373.81 1003.38C1378.42 996.459 1378.93 987.591 1375.16 980.183L1264.54 763.089C1260.77 755.681 1253.29 750.887 1244.98 750.549L921.155 737.41C915.965 737.199 910.856 738.752 906.661 741.815L613.378 955.941C608.281 959.661 604.938 965.312 604.129 971.57L569.536 1239.37Z" stroke="url(#paint24_linear_1_19)" stroke-width="4"/>
<path opacity="0.376812" d="M543.019 1216.91C541.342 1226.2 545.515 1235.58 553.543 1240.55L781.164 1381.51C786.538 1384.84 793.046 1385.81 799.158 1384.2L1146.05 1292.39C1151.09 1291.06 1155.53 1288.05 1158.64 1283.86L1349.6 1026.33C1354.54 1019.67 1355.51 1010.86 1352.13 1003.28L1253.71 782.211C1250.33 774.632 1243.14 769.457 1234.88 768.67L915.722 738.258C910.528 737.763 905.32 739.049 900.954 741.904L600.617 938.267C595.326 941.726 591.692 947.211 590.569 953.433L543.019 1216.91Z" stroke="url(#paint25_linear_1_19)" stroke-width="4"/>
<path opacity="0.391304" d="M517.798 1194.48C515.667 1203.64 519.327 1213.17 527.04 1218.55L744.74 1370.43C749.935 1374.06 756.394 1375.38 762.595 1374.09L1109.66 1301.72C1114.79 1300.65 1119.4 1297.86 1122.73 1293.81L1324.16 1048.89C1329.42 1042.5 1330.84 1033.77 1327.87 1026.04L1241.75 801.682C1238.78 793.952 1231.89 788.414 1223.7 787.181L910.123 739.952C904.941 739.172 899.648 740.184 895.121 742.822L588.777 921.276C583.304 924.464 579.388 929.768 577.952 935.937L517.798 1194.48Z" stroke="url(#paint26_linear_1_19)" stroke-width="4"/>
<path opacity="0.405797" d="M493.859 1172.14C491.283 1181.15 494.424 1190.81 501.8 1196.58L709.068 1358.73C714.067 1362.64 720.459 1364.31 726.732 1363.35L1072.9 1310.18C1078.1 1309.38 1082.88 1306.82 1086.42 1302.93L1297.53 1071C1303.09 1064.89 1304.95 1056.27 1302.4 1048.41L1228.65 821.435C1226.1 813.578 1219.53 807.693 1211.43 806.019L904.316 742.476C899.162 741.409 893.797 742.143 889.119 744.555L577.809 905.013C572.168 907.921 567.979 913.03 566.234 919.132L493.859 1172.14Z" stroke="url(#paint27_linear_1_19)" stroke-width="4"/>
<path opacity="0.42029" d="M471.18 1149.98C468.171 1158.8 470.789 1168.57 477.808 1174.71L674.174 1346.46C678.96 1350.64 685.266 1352.66 691.594 1352.03L1035.82 1317.76C1041.08 1317.24 1046 1314.92 1049.75 1311.19L1269.75 1092.59C1275.6 1086.78 1277.89 1078.29 1275.76 1070.33L1214.42 841.404C1212.28 833.442 1206.05 827.23 1198.08 825.122L898.259 745.811C893.147 744.459 887.725 744.909 882.907 747.086L567.666 889.522C561.871 892.141 557.419 897.041 555.366 903.06L471.18 1149.98Z" stroke="url(#paint28_linear_1_19)" stroke-width="4"/>
<path opacity="0.434783" d="M449.739 1128.05C446.308 1136.68 448.4 1146.52 455.044 1153.01L640.078 1333.65C644.637 1338.1 650.838 1340.46 657.203 1340.17L998.464 1324.45C1003.77 1324.21 1008.83 1322.13 1012.78 1318.58L1240.86 1113.61C1246.97 1108.11 1249.69 1099.76 1247.98 1091.72L1199.05 861.525C1197.34 853.48 1191.46 846.96 1183.64 844.426L891.91 749.937C886.857 748.3 881.392 748.463 876.445 750.398L558.295 874.844C552.361 877.165 547.656 881.843 545.302 887.764L449.739 1128.05Z" stroke="url(#paint29_linear_1_19)" stroke-width="4"/>
<path opacity="0.449275" d="M429.507 1106.43C425.667 1114.84 427.233 1124.73 433.484 1131.54L606.8 1320.37C611.117 1325.07 617.195 1327.77 623.579 1327.82L960.888 1330.24C966.225 1330.28 971.409 1328.46 975.553 1325.1L1210.89 1133.99C1217.26 1128.81 1220.39 1120.64 1219.11 1112.53L1182.55 881.732C1181.27 873.627 1175.77 866.82 1168.11 863.869L885.231 754.833C880.251 752.913 874.759 752.786 869.695 754.471L549.645 861.014C543.588 863.031 538.641 867.475 535.989 873.282L429.507 1106.43Z" stroke="url(#paint30_linear_1_19)" stroke-width="4"/>
<path opacity="0.463768" d="M410.454 1085.18C406.219 1093.35 407.26 1103.26 413.101 1110.37L574.357 1306.66C578.417 1311.6 584.354 1314.63 590.739 1315.02L923.143 1335.13C928.496 1335.46 933.794 1333.9 938.121 1330.73L1179.91 1153.67C1186.51 1148.84 1190.05 1140.85 1189.19 1132.71L1164.94 901.963C1164.08 893.821 1158.96 886.748 1151.5 883.391L878.184 760.474C873.293 758.274 867.787 757.853 862.619 759.283L541.661 848.068C535.495 849.774 530.318 853.97 527.374 859.65L410.454 1085.18Z" stroke="url(#paint31_linear_1_19)" stroke-width="4"/>
<path opacity="0.478261" d="M392.545 1064.36C387.93 1072.27 388.448 1082.17 393.865 1089.56L542.76 1292.57C546.552 1297.74 552.328 1301.09 558.697 1301.82L885.279 1339.11C890.633 1339.72 896.032 1338.43 900.534 1335.47L1147.95 1172.62C1154.77 1168.13 1158.7 1160.36 1158.27 1152.21L1146.22 922.155C1145.79 914 1141.07 906.682 1133.81 902.93L870.733 766.834C865.946 764.358 860.442 763.641 855.181 764.809L534.287 836.035C528.028 837.424 522.634 841.362 519.404 846.899L392.545 1064.36Z" stroke="url(#paint32_linear_1_19)" stroke-width="4"/>
<path opacity="0.492754" d="M375.742 1044.04C370.762 1051.68 370.762 1061.53 375.742 1069.17L512.022 1278.15C515.531 1283.53 521.13 1287.2 527.464 1288.27L847.348 1342.18C852.689 1343.08 858.176 1342.07 862.842 1339.32L1115.07 1190.78C1122.09 1186.64 1126.4 1179.11 1126.4 1170.96L1126.4 942.247C1126.4 934.101 1122.09 926.563 1115.07 922.429L862.842 773.886C858.176 771.138 852.689 770.124 847.348 771.025L527.464 824.942C521.13 826.01 515.531 829.678 512.022 835.059L375.742 1044.04Z" stroke="url(#paint33_linear_1_19)" stroke-width="4"/>
<path opacity="0.507246" d="M360.004 1024.27C354.677 1031.61 354.164 1041.4 358.694 1049.26L482.149 1263.45C485.363 1269.03 490.768 1273 497.05 1274.41L809.401 1344.35C814.713 1345.54 820.274 1344.81 825.096 1342.28L1081.33 1208.1C1088.53 1204.33 1093.2 1197.04 1093.63 1188.93L1105.51 962.181C1105.94 954.066 1102.05 946.33 1095.29 941.828L854.48 781.6C849.949 778.585 844.494 777.274 839.087 777.902L521.136 814.812C514.742 815.555 508.951 818.943 505.171 824.154L360.004 1024.27Z" stroke="url(#paint34_linear_1_19)" stroke-width="4"/>
<path opacity="0.521739" d="M372.288 1005.1C366.631 1012.13 365.612 1021.83 369.683 1029.88L480.146 1248.52C483.055 1254.28 488.248 1258.55 494.459 1260.29L798.487 1345.62C803.755 1347.1 809.378 1346.65 814.345 1344.36L1073.78 1224.55C1081.14 1221.15 1086.17 1214.13 1087.01 1206.07L1110.58 981.898C1111.42 973.838 1107.97 965.927 1101.47 961.074L872.616 789.946C868.234 786.669 862.828 785.062 857.368 785.413L542.242 805.666C535.805 806.08 529.837 809.178 525.794 814.206L372.288 1005.1Z" stroke="url(#paint35_linear_1_19)" stroke-width="4"/>
<path opacity="0.536232" d="M358.547 986.583C352.578 993.294 351.062 1002.87 354.665 1011.09L452.015 1233.41C454.608 1239.33 459.574 1243.89 465.696 1245.96L760.657 1346C765.866 1347.76 771.536 1347.61 776.638 1345.55L1038.49 1240.09C1045.98 1237.07 1051.34 1230.33 1052.61 1222.35L1087.61 1001.34C1088.88 993.359 1085.86 985.298 1079.66 980.11L863.22 798.891C859.003 795.36 853.66 793.457 848.16 793.528L536.723 797.52C530.258 797.603 524.127 800.402 519.831 805.233L358.547 986.583Z" stroke="url(#paint36_linear_1_19)" stroke-width="4"/>
<path opacity="0.550725" d="M345.732 968.771C339.47 975.145 337.467 984.57 340.595 992.94L424.755 1218.16C427.023 1224.23 431.746 1229.06 437.762 1231.47L722.96 1345.5C728.094 1347.55 733.796 1347.69 739.022 1345.88L1002.5 1254.68C1010.12 1252.04 1015.8 1245.61 1017.47 1237.72L1063.65 1020.46C1065.33 1012.58 1062.76 1004.39 1056.87 998.884L853.266 808.402C849.228 804.624 843.964 802.427 838.438 802.214L531.516 790.386C525.042 790.136 518.763 792.629 514.223 797.251L345.732 968.771Z" stroke="url(#paint37_linear_1_19)" stroke-width="4"/>
<path opacity="0.565217" d="M333.792 951.707C327.256 957.731 324.778 966.982 327.425 975.468L398.363 1202.84C400.297 1209.03 404.761 1214.13 410.653 1216.85L685.442 1344.13C690.487 1346.47 696.208 1346.9 701.545 1345.35L965.888 1268.29C973.605 1266.04 979.588 1259.93 981.668 1252.16L1038.73 1039.2C1040.81 1031.44 1038.69 1023.15 1033.13 1017.35L842.728 818.443C838.884 814.427 833.714 811.939 828.177 811.441L526.563 784.273C520.096 783.691 513.684 785.869 508.91 790.27L333.792 951.707Z" stroke="url(#paint38_linear_1_19)" stroke-width="4"/>
<path opacity="0.57971" d="M322.673 935.431C315.884 941.094 312.942 950.147 315.106 958.72L372.833 1187.47C374.425 1193.78 378.616 1199.12 384.366 1202.17L648.151 1341.92C653.092 1344.54 658.816 1345.27 664.254 1343.97L928.713 1280.9C936.509 1279.04 942.776 1273.26 945.252 1265.64L1012.87 1057.52C1015.35 1049.9 1013.68 1041.53 1008.47 1035.45L831.584 828.981C827.947 824.735 822.888 821.96 817.353 821.173L521.801 779.187C515.358 778.272 508.829 780.129 503.832 784.298L322.673 935.431Z" stroke="url(#paint39_linear_1_19)" stroke-width="4"/>
<path opacity="0.594203" d="M312.32 919.981C305.298 925.272 301.908 934.104 303.585 942.735L348.155 1172.12C349.399 1178.52 353.303 1184.09 358.895 1187.45L611.133 1338.88C615.953 1341.77 621.667 1342.8 627.194 1341.77L891.039 1292.49C898.895 1291.02 905.425 1285.59 908.289 1278.13L986.122 1075.36C988.986 1067.9 987.772 1059.49 982.916 1053.14L819.814 839.977C816.397 835.512 811.463 832.453 805.944 831.378L517.17 775.131C510.768 773.884 504.138 775.413 498.93 779.339L312.32 919.981Z" stroke="url(#paint40_linear_1_19)" stroke-width="4"/>
<path opacity="0.608696" d="M302.676 905.39C295.443 910.301 291.619 918.889 292.81 927.55L324.319 1156.82C325.209 1163.3 328.813 1169.09 334.229 1172.75L574.431 1335.03C579.117 1338.19 584.805 1339.52 590.408 1338.76L852.931 1303.04C860.825 1301.97 867.601 1296.88 870.841 1289.6L958.513 1092.69C961.754 1085.41 960.997 1076.98 956.513 1070.39L807.397 851.395C804.214 846.721 799.421 843.383 793.933 842.019L512.609 772.101C506.265 770.525 499.55 771.722 494.142 775.394L302.676 905.39Z" stroke="url(#paint41_linear_1_19)" stroke-width="4"/>
<path opacity="0.623188" d="M293.683 891.69C286.259 896.212 282.02 904.533 282.725 913.197L301.311 1141.63C301.842 1148.16 305.134 1154.15 310.358 1158.1L538.088 1330.4C542.624 1333.83 548.272 1335.46 553.939 1334.97L814.453 1312.53C822.366 1311.85 829.367 1307.13 832.973 1300.06L930.088 1109.46C933.693 1102.38 933.393 1093.95 929.293 1087.14L794.319 863.196C791.383 858.324 786.745 854.713 781.302 853.061L508.059 770.094C501.789 768.191 495.006 769.051 489.411 772.46L293.683 891.69Z" stroke="url(#paint42_linear_1_19)" stroke-width="4"/>
<path opacity="0.637681" d="M285.282 878.906C277.689 883.032 273.051 891.067 273.273 899.706L279.115 1126.57C279.284 1133.14 282.251 1139.32 287.268 1143.55L502.146 1325C506.518 1328.69 512.109 1330.62 517.828 1330.41L775.672 1320.96C783.584 1320.67 790.79 1316.33 794.748 1309.47L900.888 1125.63C904.846 1118.78 905 1110.37 901.296 1103.37L780.564 875.342C777.887 870.284 773.42 866.407 768.037 864.467L503.459 769.101C497.281 766.874 490.446 767.394 484.677 770.53L285.282 878.906Z" stroke="url(#paint43_linear_1_19)" stroke-width="4"/>
<path opacity="0.652174" d="M277.412 867.061C269.672 870.786 264.654 878.514 264.398 887.1L257.712 1111.71C257.516 1118.29 260.149 1124.64 264.943 1129.14L466.643 1318.88C470.837 1322.83 476.357 1325.05 482.114 1325.13L736.653 1328.31C744.543 1328.41 751.933 1324.46 756.23 1317.84L870.958 1141.17C875.255 1134.56 875.86 1126.2 872.561 1119.03L766.122 887.793C763.714 882.563 759.433 878.426 754.123 876.2L498.752 769.11C492.682 766.564 485.813 766.741 479.882 769.596L277.412 867.061Z" stroke="url(#paint44_linear_1_19)" stroke-width="4"/>
<path opacity="0.666667" d="M270.012 856.173C262.147 859.494 256.768 866.897 256.041 875.403L237.083 1097.07C236.52 1103.64 238.808 1110.14 243.364 1114.91L431.617 1312.06C435.618 1316.25 441.053 1318.77 446.835 1319.13L697.462 1334.59C705.311 1335.07 712.863 1331.51 717.485 1325.15L840.343 1156.05C844.965 1149.69 846.017 1141.41 843.131 1134.09L750.981 900.51C748.855 895.121 744.773 890.733 739.552 888.222L493.881 770.105C487.935 767.246 481.048 767.079 474.97 769.645L270.012 856.173Z" stroke="url(#paint45_linear_1_19)" stroke-width="4"/>
<path opacity="0.681159" d="M263.02 846.26C255.052 849.171 249.334 856.232 248.142 864.631L217.204 1082.69C216.275 1089.24 218.209 1095.87 222.513 1100.89L397.104 1304.57C400.898 1309 406.232 1311.82 412.027 1312.46L658.162 1339.8C665.951 1340.66 673.644 1337.5 678.575 1331.41L809.092 1170.24C814.023 1164.15 815.515 1155.97 813.049 1148.53L735.135 913.454C733.3 907.92 729.433 903.289 724.314 900.498L488.79 772.069C482.984 768.903 476.096 768.389 469.884 770.659L263.02 846.26Z" stroke="url(#paint46_linear_1_19)" stroke-width="4"/>
<path opacity="0.695652" d="M256.374 837.33C248.325 839.831 242.29 846.535 240.643 854.8L198.051 1068.62C196.756 1075.12 198.33 1081.87 202.368 1087.12L363.136 1296.44C366.711 1301.1 371.929 1304.21 377.723 1305.14L618.819 1343.94C626.528 1345.18 634.34 1342.42 639.565 1336.62L777.251 1183.7C782.476 1177.9 784.399 1169.84 782.36 1162.31L718.577 926.585C717.045 920.92 713.405 916.056 708.402 912.987L483.424 774.979C477.773 771.513 470.902 770.653 464.571 772.621L256.374 837.33Z" stroke="url(#paint47_linear_1_19)" stroke-width="4"/>
<path opacity="0.710145" d="M250.013 829.392C241.906 831.483 235.575 837.814 233.484 845.921L179.6 1054.89C177.94 1061.32 179.145 1068.16 182.904 1073.64L329.747 1287.72C333.088 1292.59 338.176 1295.99 343.956 1297.21L579.496 1347.02C587.107 1348.63 595.016 1346.28 600.517 1340.78L744.871 1196.42C750.372 1190.92 752.719 1183.01 751.11 1175.4L701.306 939.863C700.084 934.084 696.685 928.996 691.814 925.654L477.731 778.812C472.251 775.053 465.413 773.848 458.978 775.508L250.013 829.392Z" stroke="url(#paint48_linear_1_19)" stroke-width="4"/>
<path opacity="0.724638" d="M243.874 822.45C235.73 824.13 229.127 830.075 226.605 837.999L161.82 1041.52C159.8 1047.87 160.63 1054.78 164.098 1060.47L296.963 1278.44C300.059 1283.52 305.001 1287.2 310.753 1288.71L540.254 1349.05C547.749 1351.02 555.733 1349.09 561.493 1343.9L712.001 1208.38C717.76 1203.2 720.521 1195.46 719.344 1187.8L683.32 953.249C682.417 947.371 679.272 942.07 674.545 938.461L471.659 783.539C466.365 779.497 459.578 777.948 453.054 779.294L243.874 822.45Z" stroke="url(#paint49_linear_1_19)" stroke-width="4"/>
<path opacity="0.73913" d="M237.897 816.504C229.738 817.775 222.887 823.323 219.947 831.04L144.684 1028.56C142.306 1034.8 142.758 1041.76 145.922 1047.65L264.813 1268.63C267.651 1273.9 272.434 1277.86 278.145 1279.67L501.156 1350.06C508.517 1352.39 516.554 1350.86 522.553 1346L678.692 1219.56C684.691 1214.71 687.853 1207.16 687.111 1199.48L664.62 966.704C664.044 960.743 661.165 955.242 656.597 951.37L465.161 789.132C460.066 784.814 453.347 782.924 446.748 783.952L237.897 816.504Z" stroke="url(#paint50_linear_1_19)" stroke-width="4"/>
<path opacity="0.753623" d="M232.021 811.549C223.868 812.415 216.793 817.556 213.45 825.042L128.16 1016.03C125.431 1022.14 125.5 1029.14 128.349 1035.2L233.322 1258.34C235.889 1263.8 240.498 1268.03 246.154 1270.12L462.259 1350.06C469.471 1352.73 477.538 1351.62 483.758 1347.1L644.995 1229.95C651.215 1225.43 654.766 1218.1 654.457 1210.42L645.209 980.19C644.967 974.163 642.367 968.473 637.97 964.345L458.188 795.555C453.307 790.973 446.673 788.745 440.015 789.452L232.021 811.549Z" stroke="url(#paint51_linear_1_19)" stroke-width="4"/>
<path opacity="0.768116" d="M226.186 807.579C218.06 808.044 210.785 812.768 207.056 820.002L112.217 1003.96C109.142 1009.92 108.825 1016.93 111.351 1023.15L202.51 1247.6C204.796 1253.23 209.216 1257.73 214.805 1260.11L423.623 1349.07C430.667 1352.08 438.743 1351.37 445.164 1347.2L610.961 1239.53C617.383 1235.36 621.308 1228.27 621.431 1220.62L625.092 993.666C625.19 987.592 622.881 981.726 618.669 977.348L450.697 802.776C446.044 797.94 439.51 795.377 432.81 795.76L226.186 807.579Z" stroke="url(#paint52_linear_1_19)" stroke-width="4"/>
<path opacity="0.782609" d="M220.332 804.584C212.255 804.652 204.806 808.953 200.708 815.914L96.8211 992.367C93.4075 998.165 92.7039 1005.17 94.8956 1011.53L172.399 1236.47C174.392 1242.26 178.61 1247.01 184.118 1249.68L385.302 1347.13C392.163 1350.45 400.226 1350.16 406.829 1346.35L576.642 1248.31C583.244 1244.49 587.529 1237.66 588.081 1230.05L604.278 1007.1C604.721 1000.99 602.714 994.965 598.699 990.345L442.645 810.755C438.232 805.676 431.816 802.784 425.088 802.841L220.332 804.584Z" stroke="url(#paint53_linear_1_19)" stroke-width="4"/>
<path opacity="0.797101" d="M214.404 802.548C206.395 802.227 198.797 806.098 194.349 812.766L81.9382 981.284C78.195 986.896 77.1038 993.867 78.9535 1000.35L143.004 1224.98C144.695 1230.91 148.697 1235.91 154.11 1238.86L347.351 1344.26C354.014 1347.89 362.042 1348 368.805 1344.56L542.088 1256.26C548.851 1252.82 553.479 1246.26 554.455 1238.73L582.774 1020.45C583.568 1014.33 581.872 1008.15 578.069 1003.3L433.994 819.452C429.833 814.143 423.551 810.928 416.811 810.658L214.404 802.548Z" stroke="url(#paint54_linear_1_19)" stroke-width="4"/>
<path opacity="0.811594" d="M208.344 801.454C200.423 800.751 192.701 804.189 187.924 810.545L67.5331 970.729C63.47 976.135 61.992 983.055 63.4922 989.649L114.342 1213.17C115.721 1219.23 119.492 1224.47 124.798 1227.71L309.82 1340.48C316.271 1344.42 324.243 1344.93 331.146 1341.86L507.351 1263.41C514.253 1260.33 519.206 1254.06 520.601 1246.64L560.594 1033.68C561.741 1027.57 560.367 1021.26 556.787 1016.18L424.705 828.827C420.808 823.3 414.677 819.768 407.94 819.17L208.344 801.454Z" stroke="url(#paint55_linear_1_19)" stroke-width="4"/>
<path opacity="0.826087" d="M202.097 801.282C194.285 800.205 186.465 803.207 181.379 809.235L53.5701 960.719C49.1978 965.901 47.3349 972.748 48.4789 979.431L86.4238 1201.09C87.4806 1207.26 91.0093 1212.74 96.1949 1216.25L272.759 1335.85C278.985 1340.07 286.88 1340.98 293.9 1338.28L472.48 1269.73C479.501 1267.04 484.76 1261.08 486.565 1253.78L537.748 1046.75C539.252 1040.67 538.21 1034.24 534.865 1028.95L414.745 838.835C411.123 833.103 405.157 829.261 398.44 828.335L202.097 801.282Z" stroke="url(#paint56_linear_1_19)" stroke-width="4"/>
<path opacity="0.84058" d="M195.613 802.007C187.926 800.567 180.034 803.131 174.662 808.815L40.0127 951.27C35.3431 956.21 33.0982 962.963 33.8805 969.716L59.259 1188.78C59.9857 1195.05 63.2588 1200.75 68.311 1204.54L236.214 1330.4C242.202 1334.89 249.999 1336.18 257.117 1333.87L437.525 1275.25C444.642 1272.94 450.189 1267.31 452.395 1260.16L514.253 1059.64C516.115 1053.61 515.414 1047.08 512.315 1041.58L404.083 849.43C400.746 843.507 394.961 839.363 388.279 838.111L195.613 802.007Z" stroke="url(#paint57_linear_1_19)" stroke-width="4"/>
<path opacity="0.855072" d="M188.839 803.604C181.296 801.81 173.357 803.938 167.722 809.263L26.8241 942.397C21.8701 947.078 19.2474 953.715 19.6633 960.518L32.8551 1176.29C33.2435 1182.65 36.2486 1188.56 41.1548 1192.61L200.229 1324.16C205.967 1328.91 213.647 1330.58 220.839 1328.65L402.533 1279.97C409.725 1278.04 415.54 1272.75 418.136 1265.77L490.125 1072.31C492.346 1066.35 491.993 1059.73 489.153 1054.03L392.689 860.566C389.648 854.466 384.058 850.03 377.427 848.453L188.839 803.604Z" stroke="url(#paint58_linear_1_19)" stroke-width="4"/>
<path opacity="0.869565" d="M181.729 806.042C174.347 803.907 166.386 805.599 160.511 810.552L13.9673 934.11C8.74284 938.515 5.74772 945.015 5.79362 951.849L7.21654 1163.67C7.25966 1170.09 9.98452 1176.2 14.7322 1180.52L164.845 1317.18C170.322 1322.17 177.865 1324.21 185.111 1322.67L367.554 1283.89C374.799 1282.35 380.859 1277.42 383.835 1270.64L465.383 1084.73C467.962 1078.85 467.966 1072.16 465.394 1066.28L380.54 872.194C377.802 865.932 372.422 861.213 365.858 859.313L181.729 806.042Z" stroke="url(#paint59_linear_1_19)" stroke-width="4"/>
<path opacity="0.884058" d="M174.234 809.29C167.029 806.825 159.072 808.085 152.982 812.656L1.40446 926.419C-4.07552 930.532 -7.43645 936.874 -7.76313 943.718L-17.6549 1150.94C-17.9637 1157.41 -15.5309 1163.71 -10.954 1168.3L130.099 1309.51C135.306 1314.72 142.694 1317.13 149.97 1315.98L332.632 1287.04C339.909 1285.89 346.193 1281.32 349.533 1274.76L440.044 1096.86C442.981 1091.09 443.349 1084.35 441.056 1078.29L367.612 884.265C365.186 877.857 360.03 872.864 353.547 870.645L174.234 809.29Z" stroke="url(#paint60_linear_1_19)" stroke-width="4"/>
<path opacity="0.898551" d="M166.312 813.312C159.3 810.531 151.37 811.364 145.09 815.543L-10.9016 919.331C-16.6212 923.137 -20.3402 929.3 -21.0411 936.134L-41.7599 1138.17C-42.4264 1144.67 -40.2968 1151.15 -35.9028 1155.99L96.0271 1301.19C100.954 1306.62 108.168 1309.37 115.454 1308.6L297.813 1289.43C305.099 1288.67 311.584 1284.48 315.275 1278.15L414.133 1108.69C417.425 1103.04 418.161 1096.27 416.158 1090.05L353.885 896.728C351.779 890.189 346.86 884.933 340.474 882.4L166.312 813.312Z" stroke="url(#paint61_linear_1_19)" stroke-width="4"/>
<path opacity="0.913043" d="M157.922 818.072C151.118 814.988 143.24 815.401 136.795 819.179L-22.9881 912.851C-28.9305 916.334 -32.9986 922.298 -34.0741 929.101L-65.1011 1125.4C-66.1306 1131.91 -64.3152 1138.55 -60.1159 1143.64L62.6604 1292.27C67.2989 1297.89 74.3233 1300.98 81.5968 1300.6L263.14 1291.08C270.413 1290.7 277.076 1286.9 281.102 1280.83L387.669 1120.17C391.314 1114.68 392.426 1107.88 390.721 1101.51L339.345 909.531C337.564 902.877 332.895 897.372 326.621 894.528L157.922 818.072Z" stroke="url(#paint62_linear_1_19)" stroke-width="4"/>
<path opacity="0.927536" d="M149.025 823.53C142.442 820.159 134.64 820.159 128.057 823.53L-34.8924 906.979C-41.0398 910.128 -45.447 915.872 -46.8964 922.625L-87.6845 1112.66C-89.0812 1119.17 -87.5905 1125.96 -83.5975 1131.29L30.0273 1282.81C34.3709 1288.6 41.1882 1292.01 48.428 1292.01L228.653 1292.01C235.893 1292.01 242.71 1288.6 247.054 1282.81L360.679 1131.29C364.672 1125.96 366.163 1119.17 364.766 1112.66L323.978 922.625C322.528 915.872 318.121 910.128 311.974 906.979L149.025 823.53Z" stroke="url(#paint63_linear_1_19)" stroke-width="4"/>
<path opacity="0.942029" d="M139.585 829.646C133.237 826.003 125.533 825.599 118.838 828.559L-46.6509 901.718C-52.9847 904.518 -57.7197 910.023 -59.5413 916.704L-109.518 1100.01C-111.285 1106.49 -110.129 1113.42 -106.354 1118.98L-1.84684 1272.84C2.19575 1278.79 8.79056 1282.51 15.9755 1282.89L194.394 1292.24C201.579 1292.61 208.526 1289.61 213.169 1284.11L333.186 1142.02C337.522 1136.88 339.396 1130.11 338.316 1123.48L307.774 935.955C306.66 929.12 302.527 923.15 296.52 919.703L139.585 829.646Z" stroke="url(#paint64_linear_1_19)" stroke-width="4"/>
<path opacity="0.956522" d="M129.571 836.376C123.468 832.477 115.885 831.68 109.105 834.225L-58.3003 897.065C-64.801 899.505 -69.8514 904.752 -72.0423 911.341L-130.612 1087.48C-132.753 1093.92 -131.941 1100.97 -128.394 1106.76L-32.9404 1262.43C-29.2038 1268.52 -22.8462 1272.53 -15.7371 1273.28L160.4 1291.79C167.509 1292.54 174.561 1289.94 179.483 1284.76L305.217 1152.33C309.89 1147.41 312.15 1140.68 311.395 1133.93L290.726 949.469C289.953 942.569 286.104 936.387 280.253 932.648L129.571 836.376Z" stroke="url(#paint65_linear_1_19)" stroke-width="4"/>
<path opacity="0.971014" d="M118.952 843.676C113.105 839.538 105.665 838.359 98.8255 840.489L-69.8761 893.016C-76.5235 895.085 -81.8757 900.055 -84.4321 906.531L-150.979 1075.11C-153.496 1081.49 -153.038 1088.65 -149.73 1094.66L-63.2351 1251.63C-59.8084 1257.85 -53.7017 1262.13 -46.6888 1263.24L126.706 1290.71C133.719 1291.82 140.851 1289.63 146.032 1284.77L276.799 1162.21C281.801 1157.53 284.451 1150.85 284.027 1144.01L272.832 963.116C272.402 956.167 268.847 949.787 263.165 945.764L118.952 843.676Z" stroke="url(#paint66_linear_1_19)" stroke-width="4"/>
<path opacity="0.985507" d="M107.702 851.501C102.122 847.14 94.8438 845.593 87.9723 847.307L-81.4127 889.564C-88.186 891.253 -93.8253 895.928 -96.7419 902.27L-170.634 1062.95C-173.527 1069.24 -173.431 1076.51 -170.373 1082.72L-92.7154 1240.49C-89.6016 1246.81 -83.7584 1251.36 -76.8618 1252.83L93.346 1289.01C100.243 1290.47 107.431 1288.69 112.848 1284.18L247.961 1171.64C253.283 1167.21 256.324 1160.61 256.24 1153.69L254.091 976.842C254.007 969.862 250.756 963.298 245.256 958.999L107.702 851.501Z" stroke="url(#paint67_linear_1_19)" stroke-width="4"/>
<path d="M95.7973 859.803C90.4919 855.237 83.3961 853.336 76.5187 854.637L-92.9451 886.701C-99.8226 888.003 -105.733 892.365 -109.004 898.553L-189.594 1051.04C-192.865 1057.23 -193.139 1064.57 -190.34 1070.98L-121.371 1229.06C-118.572 1235.48 -113.003 1240.27 -106.242 1242.08L60.3513 1286.72C67.1123 1288.53 74.3303 1287.17 79.962 1283.01L218.731 1180.59C224.363 1176.44 227.796 1169.94 228.058 1162.95L234.506 990.597C234.768 983.602 231.831 976.869 226.525 972.303L95.7973 859.803Z" stroke="url(#paint68_linear_1_19)" stroke-width="4"/>
<defs>
<linearGradient id="paint0_linear_1_19" x1="1467.91" y1="1604.24" x2="1284.03" y2="443.222" gradientUnits="userSpaceOnUse">
<stop stop-color="#FF1CF7"/>
<stop offset="1" stop-color="#00F0FF"/>
</linearGradient>
<linearGradient id="paint1_linear_1_19" x1="1416.15" y1="1603.5" x2="1294.36" y2="444.766" gradientUnits="userSpaceOnUse">
<stop stop-color="#FF1CF7"/>
<stop offset="1" stop-color="#00F0FF"/>
</linearGradient>
<linearGradient id="paint2_linear_1_19" x1="1364.74" y1="1601.17" x2="1304.31" y2="448.015" gradientUnits="userSpaceOnUse">
<stop stop-color="#FF1CF7"/>
<stop offset="1" stop-color="#00F0FF"/>
</linearGradient>
<linearGradient id="paint3_linear_1_19" x1="1313.78" y1="1597.29" x2="1313.78" y2="452.931" gradientUnits="userSpaceOnUse">
<stop stop-color="#FF1CF7"/>
<stop offset="1" stop-color="#00F0FF"/>
</linearGradient>
<linearGradient id="paint4_linear_1_19" x1="1263.34" y1="1591.9" x2="1322.69" y2="459.471" gradientUnits="userSpaceOnUse">
<stop stop-color="#FF1CF7"/>
<stop offset="1" stop-color="#00F0FF"/>
</linearGradient>
<linearGradient id="paint5_linear_1_19" x1="1240.51" y1="1585.05" x2="1357.95" y2="467.59" gradientUnits="userSpaceOnUse">
<stop stop-color="#FF1CF7"/>
<stop offset="1" stop-color="#00F0FF"/>
</linearGradient>
<linearGradient id="paint6_linear_1_19" x1="1191.34" y1="1576.77" x2="1365.49" y2="477.237" gradientUnits="userSpaceOnUse">
<stop stop-color="#FF1CF7"/>
<stop offset="1" stop-color="#00F0FF"/>
</linearGradient>
<linearGradient id="paint7_linear_1_19" x1="1142.93" y1="1567.12" x2="1372.23" y2="488.358" gradientUnits="userSpaceOnUse">
<stop stop-color="#FF1CF7"/>
<stop offset="1" stop-color="#00F0FF"/>
</linearGradient>
<linearGradient id="paint8_linear_1_19" x1="1095.33" y1="1556.15" x2="1378.08" y2="500.893" gradientUnits="userSpaceOnUse">
<stop stop-color="#FF1CF7"/>
<stop offset="1" stop-color="#00F0FF"/>
</linearGradient>
<linearGradient id="paint9_linear_1_19" x1="1075.61" y1="1543.93" x2="1410" y2="514.781" gradientUnits="userSpaceOnUse">
<stop stop-color="#FF1CF7"/>
<stop offset="1" stop-color="#00F0FF"/>
</linearGradient>
<linearGradient id="paint10_linear_1_19" x1="1029.82" y1="1530.51" x2="1413.9" y2="529.957" gradientUnits="userSpaceOnUse">
<stop stop-color="#FF1CF7"/>
<stop offset="1" stop-color="#00F0FF"/>
</linearGradient>
<linearGradient id="paint11_linear_1_19" x1="985.037" y1="1515.95" x2="1416.73" y2="546.351" gradientUnits="userSpaceOnUse">
<stop stop-color="#FF1CF7"/>
<stop offset="1" stop-color="#00F0FF"/>
</linearGradient>
<linearGradient id="paint12_linear_1_19" x1="941.299" y1="1500.33" x2="1418.44" y2="563.894" gradientUnits="userSpaceOnUse">
<stop stop-color="#FF1CF7"/>
<stop offset="1" stop-color="#00F0FF"/>
</linearGradient>
<linearGradient id="paint13_linear_1_19" x1="898.658" y1="1483.71" x2="1418.96" y2="582.511" gradientUnits="userSpaceOnUse">
<stop stop-color="#FF1CF7"/>
<stop offset="1" stop-color="#00F0FF"/>
</linearGradient>
<linearGradient id="paint14_linear_1_19" x1="884.158" y1="1466.16" x2="1445.27" y2="602.127" gradientUnits="userSpaceOnUse">
<stop stop-color="#FF1CF7"/>
<stop offset="1" stop-color="#00F0FF"/>
</linearGradient>
<linearGradient id="paint15_linear_1_19" x1="843.837" y1="1447.75" x2="1443.3" y2="622.663" gradientUnits="userSpaceOnUse">
<stop stop-color="#FF1CF7"/>
<stop offset="1" stop-color="#00F0FF"/>
</linearGradient>
<linearGradient id="paint16_linear_1_19" x1="804.732" y1="1428.56" x2="1440.02" y2="644.04" gradientUnits="userSpaceOnUse">
<stop stop-color="#FF1CF7"/>
<stop offset="1" stop-color="#00F0FF"/>
</linearGradient>
<linearGradient id="paint17_linear_1_19" x1="766.873" y1="1408.66" x2="1435.41" y2="666.177" gradientUnits="userSpaceOnUse">
<stop stop-color="#FF1CF7"/>
<stop offset="1" stop-color="#00F0FF"/>
</linearGradient>
<linearGradient id="paint18_linear_1_19" x1="730.285" y1="1388.13" x2="1429.43" y2="688.992" gradientUnits="userSpaceOnUse">
<stop stop-color="#FF1CF7"/>
<stop offset="1" stop-color="#00F0FF"/>
</linearGradient>
<linearGradient id="paint19_linear_1_19" x1="694.991" y1="1367.05" x2="1422.06" y2="712.401" gradientUnits="userSpaceOnUse">
<stop stop-color="#FF1CF7"/>
<stop offset="1" stop-color="#00F0FF"/>
</linearGradient>
<linearGradient id="paint20_linear_1_19" x1="661.009" y1="1345.5" x2="1413.28" y2="736.323" gradientUnits="userSpaceOnUse">
<stop stop-color="#FF1CF7"/>
<stop offset="1" stop-color="#00F0FF"/>
</linearGradient>
<linearGradient id="paint21_linear_1_19" x1="655.348" y1="1323.54" x2="1430.07" y2="760.672" gradientUnits="userSpaceOnUse">
<stop stop-color="#FF1CF7"/>
<stop offset="1" stop-color="#00F0FF"/>
</linearGradient>
<linearGradient id="paint22_linear_1_19" x1="624.019" y1="1301.27" x2="1418.44" y2="785.365" gradientUnits="userSpaceOnUse">
<stop stop-color="#FF1CF7"/>
<stop offset="1" stop-color="#00F0FF"/>
</linearGradient>
<linearGradient id="paint23_linear_1_19" x1="594.025" y1="1278.75" x2="1405.37" y2="810.319" gradientUnits="userSpaceOnUse">
<stop stop-color="#FF1CF7"/>
<stop offset="1" stop-color="#00F0FF"/>
</linearGradient>
<linearGradient id="paint24_linear_1_19" x1="565.363" y1="1256.07" x2="1390.87" y2="835.451" gradientUnits="userSpaceOnUse">
<stop stop-color="#FF1CF7"/>
<stop offset="1" stop-color="#00F0FF"/>
</linearGradient>
<linearGradient id="paint25_linear_1_19" x1="538.03" y1="1233.29" x2="1374.94" y2="860.678" gradientUnits="userSpaceOnUse">
<stop stop-color="#FF1CF7"/>
<stop offset="1" stop-color="#00F0FF"/>
</linearGradient>
<linearGradient id="paint26_linear_1_19" x1="512.015" y1="1210.51" x2="1357.59" y2="885.921" gradientUnits="userSpaceOnUse">
<stop stop-color="#FF1CF7"/>
<stop offset="1" stop-color="#00F0FF"/>
</linearGradient>
<linearGradient id="paint27_linear_1_19" x1="487.305" y1="1187.78" x2="1338.84" y2="911.1" gradientUnits="userSpaceOnUse">
<stop stop-color="#FF1CF7"/>
<stop offset="1" stop-color="#00F0FF"/>
</linearGradient>
<linearGradient id="paint28_linear_1_19" x1="463.881" y1="1165.19" x2="1318.71" y2="936.136" gradientUnits="userSpaceOnUse">
<stop stop-color="#FF1CF7"/>
<stop offset="1" stop-color="#00F0FF"/>
</linearGradient>
<linearGradient id="paint29_linear_1_19" x1="441.722" y1="1142.8" x2="1297.22" y2="960.955" gradientUnits="userSpaceOnUse">
<stop stop-color="#FF1CF7"/>
<stop offset="1" stop-color="#00F0FF"/>
</linearGradient>
<linearGradient id="paint30_linear_1_19" x1="420.801" y1="1120.68" x2="1274.4" y2="985.481" gradientUnits="userSpaceOnUse">
<stop stop-color="#FF1CF7"/>
<stop offset="1" stop-color="#00F0FF"/>
</linearGradient>
<linearGradient id="paint31_linear_1_19" x1="401.09" y1="1098.9" x2="1250.28" y2="1009.64" gradientUnits="userSpaceOnUse">
<stop stop-color="#FF1CF7"/>
<stop offset="1" stop-color="#00F0FF"/>
</linearGradient>
<linearGradient id="paint32_linear_1_19" x1="382.556" y1="1077.52" x2="1224.89" y2="1033.37" gradientUnits="userSpaceOnUse">
<stop stop-color="#FF1CF7"/>
<stop offset="1" stop-color="#00F0FF"/>
</linearGradient>
<linearGradient id="paint33_linear_1_19" x1="365.161" y1="1056.6" x2="1198.27" y2="1056.6" gradientUnits="userSpaceOnUse">
<stop stop-color="#FF1CF7"/>
<stop offset="1" stop-color="#00F0FF"/>
</linearGradient>
<linearGradient id="paint34_linear_1_19" x1="348.867" y1="1036.21" x2="1170.48" y2="1079.27" gradientUnits="userSpaceOnUse">
<stop stop-color="#FF1CF7"/>
<stop offset="1" stop-color="#00F0FF"/>
</linearGradient>
<linearGradient id="paint35_linear_1_19" x1="360.631" y1="1016.4" x2="1168.54" y2="1101.32" gradientUnits="userSpaceOnUse">
<stop stop-color="#FF1CF7"/>
<stop offset="1" stop-color="#00F0FF"/>
</linearGradient>
<linearGradient id="paint36_linear_1_19" x1="346.408" y1="997.223" x2="1138.52" y2="1122.68" gradientUnits="userSpaceOnUse">
<stop stop-color="#FF1CF7"/>
<stop offset="1" stop-color="#00F0FF"/>
</linearGradient>
<linearGradient id="paint37_linear_1_19" x1="333.149" y1="978.727" x2="1107.46" y2="1143.31" gradientUnits="userSpaceOnUse">
<stop stop-color="#FF1CF7"/>
<stop offset="1" stop-color="#00F0FF"/>
</linearGradient>
<linearGradient id="paint38_linear_1_19" x1="320.804" y1="960.96" x2="1075.42" y2="1163.16" gradientUnits="userSpaceOnUse">
<stop stop-color="#FF1CF7"/>
<stop offset="1" stop-color="#00F0FF"/>
</linearGradient>
<linearGradient id="paint39_linear_1_19" x1="309.32" y1="943.966" x2="1042.45" y2="1182.18" gradientUnits="userSpaceOnUse">
<stop stop-color="#FF1CF7"/>
<stop offset="1" stop-color="#00F0FF"/>
</linearGradient>
<linearGradient id="paint40_linear_1_19" x1="298.643" y1="927.784" x2="1008.62" y2="1200.32" gradientUnits="userSpaceOnUse">
<stop stop-color="#FF1CF7"/>
<stop offset="1" stop-color="#00F0FF"/>
</linearGradient>
<linearGradient id="paint41_linear_1_19" x1="288.716" y1="912.451" x2="973.978" y2="1217.55" gradientUnits="userSpaceOnUse">
<stop stop-color="#FF1CF7"/>
<stop offset="1" stop-color="#00F0FF"/>
</linearGradient>
<linearGradient id="paint42_linear_1_19" x1="279.481" y1="897.999" x2="938.592" y2="1233.83" gradientUnits="userSpaceOnUse">
<stop stop-color="#FF1CF7"/>
<stop offset="1" stop-color="#00F0FF"/>
</linearGradient>
<linearGradient id="paint43_linear_1_19" x1="270.88" y1="884.457" x2="902.526" y2="1249.14" gradientUnits="userSpaceOnUse">
<stop stop-color="#FF1CF7"/>
<stop offset="1" stop-color="#00F0FF"/>
</linearGradient>
<linearGradient id="paint44_linear_1_19" x1="262.851" y1="871.85" x2="865.845" y2="1263.44" gradientUnits="userSpaceOnUse">
<stop stop-color="#FF1CF7"/>
<stop offset="1" stop-color="#00F0FF"/>
</linearGradient>
<linearGradient id="paint45_linear_1_19" x1="255.334" y1="860.199" x2="828.613" y2="1276.71" gradientUnits="userSpaceOnUse">
<stop stop-color="#FF1CF7"/>
<stop offset="1" stop-color="#00F0FF"/>
</linearGradient>
<linearGradient id="paint46_linear_1_19" x1="248.266" y1="849.522" x2="790.899" y2="1288.94" gradientUnits="userSpaceOnUse">
<stop stop-color="#FF1CF7"/>
<stop offset="1" stop-color="#00F0FF"/>
</linearGradient>
<linearGradient id="paint47_linear_1_19" x1="241.586" y1="839.832" x2="752.767" y2="1300.1" gradientUnits="userSpaceOnUse">
<stop stop-color="#FF1CF7"/>
<stop offset="1" stop-color="#00F0FF"/>
</linearGradient>
<linearGradient id="paint48_linear_1_19" x1="235.231" y1="831.139" x2="714.287" y2="1310.19" gradientUnits="userSpaceOnUse">
<stop stop-color="#FF1CF7"/>
<stop offset="1" stop-color="#00F0FF"/>
</linearGradient>
<linearGradient id="paint49_linear_1_19" x1="229.138" y1="823.448" x2="675.523" y2="1319.21" gradientUnits="userSpaceOnUse">
<stop stop-color="#FF1CF7"/>
<stop offset="1" stop-color="#00F0FF"/>
</linearGradient>
<linearGradient id="paint50_linear_1_19" x1="223.246" y1="816.763" x2="636.545" y2="1327.14" gradientUnits="userSpaceOnUse">
<stop stop-color="#FF1CF7"/>
<stop offset="1" stop-color="#00F0FF"/>
</linearGradient>
<linearGradient id="paint51_linear_1_19" x1="217.494" y1="811.081" x2="597.416" y2="1334" gradientUnits="userSpaceOnUse">
<stop stop-color="#FF1CF7"/>
<stop offset="1" stop-color="#00F0FF"/>
</linearGradient>
<linearGradient id="paint52_linear_1_19" x1="211.82" y1="806.398" x2="558.203" y2="1339.78" gradientUnits="userSpaceOnUse">
<stop stop-color="#FF1CF7"/>
<stop offset="1" stop-color="#00F0FF"/>
</linearGradient>
<linearGradient id="paint53_linear_1_19" x1="206.164" y1="802.704" x2="518.97" y2="1344.5" gradientUnits="userSpaceOnUse">
<stop stop-color="#FF1CF7"/>
<stop offset="1" stop-color="#00F0FF"/>
</linearGradient>
<linearGradient id="paint54_linear_1_19" x1="200.469" y1="799.988" x2="479.781" y2="1348.17" gradientUnits="userSpaceOnUse">
<stop stop-color="#FF1CF7"/>
<stop offset="1" stop-color="#00F0FF"/>
</linearGradient>
<linearGradient id="paint55_linear_1_19" x1="194.676" y1="798.233" x2="440.696" y2="1350.8" gradientUnits="userSpaceOnUse">
<stop stop-color="#FF1CF7"/>
<stop offset="1" stop-color="#00F0FF"/>
</linearGradient>
<linearGradient id="paint56_linear_1_19" x1="188.73" y1="797.421" x2="401.775" y2="1352.42" gradientUnits="userSpaceOnUse">
<stop stop-color="#FF1CF7"/>
<stop offset="1" stop-color="#00F0FF"/>
</linearGradient>
<linearGradient id="paint57_linear_1_19" x1="182.577" y1="797.53" x2="363.077" y2="1353.05" gradientUnits="userSpaceOnUse">
<stop stop-color="#FF1CF7"/>
<stop offset="1" stop-color="#00F0FF"/>
</linearGradient>
<linearGradient id="paint58_linear_1_19" x1="176.164" y1="798.534" x2="324.658" y2="1352.72" gradientUnits="userSpaceOnUse">
<stop stop-color="#FF1CF7"/>
<stop offset="1" stop-color="#00F0FF"/>
</linearGradient>
<linearGradient id="paint59_linear_1_19" x1="169.442" y1="800.406" x2="286.572" y2="1351.46" gradientUnits="userSpaceOnUse">
<stop stop-color="#FF1CF7"/>
<stop offset="1" stop-color="#00F0FF"/>
</linearGradient>
<linearGradient id="paint60_linear_1_19" x1="162.363" y1="803.114" x2="248.869" y2="1349.29" gradientUnits="userSpaceOnUse">
<stop stop-color="#FF1CF7"/>
<stop offset="1" stop-color="#00F0FF"/>
</linearGradient>
<linearGradient id="paint61_linear_1_19" x1="154.881" y1="806.626" x2="211.6" y2="1346.27" gradientUnits="userSpaceOnUse">
<stop stop-color="#FF1CF7"/>
<stop offset="1" stop-color="#00F0FF"/>
</linearGradient>
<linearGradient id="paint62_linear_1_19" x1="146.954" y1="810.905" x2="174.809" y2="1342.41" gradientUnits="userSpaceOnUse">
<stop stop-color="#FF1CF7"/>
<stop offset="1" stop-color="#00F0FF"/>
</linearGradient>
<linearGradient id="paint63_linear_1_19" x1="138.541" y1="815.914" x2="138.541" y2="1337.78" gradientUnits="userSpaceOnUse">
<stop stop-color="#FF1CF7"/>
<stop offset="1" stop-color="#00F0FF"/>
</linearGradient>
<linearGradient id="paint64_linear_1_19" x1="129.604" y1="821.612" x2="102.835" y2="1332.4" gradientUnits="userSpaceOnUse">
<stop stop-color="#FF1CF7"/>
<stop offset="1" stop-color="#00F0FF"/>
</linearGradient>
<linearGradient id="paint65_linear_1_19" x1="120.11" y1="827.958" x2="67.7291" y2="1326.33" gradientUnits="userSpaceOnUse">
<stop stop-color="#FF1CF7"/>
<stop offset="1" stop-color="#00F0FF"/>
</linearGradient>
<linearGradient id="paint66_linear_1_19" x1="110.025" y1="834.907" x2="33.2569" y2="1319.6" gradientUnits="userSpaceOnUse">
<stop stop-color="#FF1CF7"/>
<stop offset="1" stop-color="#00F0FF"/>
</linearGradient>
<linearGradient id="paint67_linear_1_19" x1="99.3229" y1="842.414" x2="-0.550114" y2="1312.28" gradientUnits="userSpaceOnUse">
<stop stop-color="#FF1CF7"/>
<stop offset="1" stop-color="#00F0FF"/>
</linearGradient>
<linearGradient id="paint68_linear_1_19" x1="87.9763" y1="850.434" x2="-33.6654" y2="1304.41" gradientUnits="userSpaceOnUse">
<stop stop-color="#FF1CF7"/>
<stop offset="1" stop-color="#00F0FF"/>
</linearGradient>
</defs>
</svg>
