<svg width="1055" height="79" viewBox="0 0 1055 79" fill="none" xmlns="http://www.w3.org/2000/svg">
  <path
    d="M0.421875 2.34375H9.13281L39.0938 41.875V2.34375H49.4062V60H40.6953L10.8516 21.0547V60H0.421875V2.34375ZM74.9516 60.8984C71.3578 60.8984 68.4281 59.8568 66.1625 57.7734C63.9229 55.6901 62.8031 52.9167 62.8031 49.4531C62.8031 47.474 63.2068 45.7161 64.0141 44.1797C64.8214 42.6432 66.2927 41.224 68.4281 39.9219C70.5635 38.5938 73.6234 37.3047 77.6078 36.0547C80.863 35.013 83.2589 34.0495 84.7953 33.1641C86.3578 32.2786 87.1391 31.1068 87.1391 29.6484C87.1391 27.9557 86.6312 26.6927 85.6156 25.8594C84.626 25 82.9333 24.5703 80.5375 24.5703C77.8812 24.5703 76.1234 25.0911 75.2641 26.1328C74.4307 27.1745 74.0141 28.5026 74.0141 30.1172V31.7578H64.0531V30.5078C64.0531 26.4453 65.4073 23.2031 68.1156 20.7812C70.824 18.3594 75.0427 17.1484 80.7719 17.1484C84.9646 17.1484 88.2849 17.7344 90.7328 18.9062C93.1807 20.0781 94.9385 21.7318 96.0062 23.8672C97.074 25.9766 97.6078 28.4766 97.6078 31.3672V47.9688C97.6078 49.8698 97.8422 51.1198 98.3109 51.7188C98.8057 52.2917 99.7042 52.5781 101.006 52.5781L100.577 60.3125H98.35C95.4333 60.3125 93.1677 59.9089 91.5531 59.1016C89.9385 58.2943 88.7536 57.0443 87.9984 55.3516C86.8786 56.8359 85.1859 58.138 82.9203 59.2578C80.6807 60.3516 78.0245 60.8984 74.9516 60.8984ZM78.5062 53.8281C79.8083 53.8281 81.3318 53.4635 83.0766 52.7344C84.8214 52.0052 86.1755 50.8854 87.1391 49.375V38.75C86.4359 39.3229 85.3161 39.9609 83.7797 40.6641C82.2432 41.3411 80.5896 42.0052 78.8187 42.6562C76.501 43.5156 74.9776 44.4661 74.2484 45.5078C73.5193 46.5495 73.1547 47.6693 73.1547 48.8672C73.1547 50.5599 73.6495 51.8099 74.6391 52.6172C75.6286 53.4245 76.9177 53.8281 78.5062 53.8281ZM107.059 18.0469H117.645L127.606 49.6094L137.45 18.0469H147.489L133.27 60H121.981L107.059 18.0469ZM155.3 18.0469H165.886V60H155.3V18.0469ZM155.222 0.820312H165.925V11.1719H155.222V0.820312ZM176.587 57.6172L178.736 50.3906C180.976 51.3542 183.319 52.1224 185.767 52.6953C188.241 53.2422 190.507 53.5156 192.564 53.5156C194.491 53.5156 195.923 53.0599 196.861 52.1484C197.798 51.2109 198.267 49.9349 198.267 48.3203C198.267 47.0964 197.994 46.1458 197.447 45.4688C196.926 44.7656 196.015 44.2057 194.712 43.7891L185.494 40.8984C182.186 39.8568 179.908 38.3203 178.658 36.2891C177.434 34.2578 176.822 31.8359 176.822 29.0234C176.822 25.013 178.228 22.0312 181.041 20.0781C183.879 18.125 187.499 17.1484 191.9 17.1484C195.494 17.1484 198.541 17.526 201.041 18.2812C203.541 19.0365 205.546 19.8438 207.056 20.7031L204.556 27.3047C203.749 26.862 202.681 26.4323 201.353 26.0156C200.025 25.599 198.606 25.2604 197.095 25C195.611 24.7135 194.205 24.5703 192.877 24.5703C190.637 24.5703 189.101 24.9609 188.267 25.7422C187.434 26.5234 187.017 27.6042 187.017 28.9844C187.017 29.8698 187.226 30.651 187.642 31.3281C188.059 31.9792 188.801 32.474 189.869 32.8125L198.541 35.5469C202.082 36.6667 204.543 38.2292 205.923 40.2344C207.304 42.2396 207.994 44.8828 207.994 48.1641C207.994 51.7057 206.744 54.7135 204.244 57.1875C201.744 59.6615 197.981 60.8984 192.955 60.8984C189.413 60.8984 186.34 60.625 183.736 60.0781C181.158 59.5573 178.775 58.737 176.587 57.6172ZM220.844 46.4453V24.8047H215.297V18.0469H221.156L222.133 4.57031H231.469V18.0469H241.43V24.8047H231.469V45.6641C231.469 48.2682 232.029 50.0781 233.148 51.0938C234.294 52.0833 236.469 52.5781 239.672 52.5781H241.703L241.312 60.4688H238.422C234.203 60.4688 230.805 60.0521 228.227 59.2188C225.648 58.3854 223.773 56.9531 222.602 54.9219C221.43 52.8646 220.844 50.0391 220.844 46.4453ZM262.639 60.8984C259.045 60.8984 256.116 59.8568 253.85 57.7734C251.61 55.6901 250.491 52.9167 250.491 49.4531C250.491 47.474 250.894 45.7161 251.702 44.1797C252.509 42.6432 253.98 41.224 256.116 39.9219C258.251 38.5938 261.311 37.3047 265.295 36.0547C268.551 35.013 270.946 34.0495 272.483 33.1641C274.045 32.2786 274.827 31.1068 274.827 29.6484C274.827 27.9557 274.319 26.6927 273.303 25.8594C272.314 25 270.621 24.5703 268.225 24.5703C265.569 24.5703 263.811 25.0911 262.952 26.1328C262.118 27.1745 261.702 28.5026 261.702 30.1172V31.7578H251.741V30.5078C251.741 26.4453 253.095 23.2031 255.803 20.7812C258.511 18.3594 262.73 17.1484 268.459 17.1484C272.652 17.1484 275.972 17.7344 278.42 18.9062C280.868 20.0781 282.626 21.7318 283.694 23.8672C284.761 25.9766 285.295 28.4766 285.295 31.3672V47.9688C285.295 49.8698 285.53 51.1198 285.998 51.7188C286.493 52.2917 287.392 52.5781 288.694 52.5781L288.264 60.3125H286.038C283.121 60.3125 280.855 59.9089 279.241 59.1016C277.626 58.2943 276.441 57.0443 275.686 55.3516C274.566 56.8359 272.873 58.138 270.608 59.2578C268.368 60.3516 265.712 60.8984 262.639 60.8984ZM266.194 53.8281C267.496 53.8281 269.019 53.4635 270.764 52.7344C272.509 52.0052 273.863 50.8854 274.827 49.375V38.75C274.123 39.3229 273.004 39.9609 271.467 40.6641C269.931 41.3411 268.277 42.0052 266.506 42.6562C264.189 43.5156 262.665 44.4661 261.936 45.5078C261.207 46.5495 260.842 47.6693 260.842 48.8672C260.842 50.5599 261.337 51.8099 262.327 52.6172C263.316 53.4245 264.605 53.8281 266.194 53.8281ZM299.825 18.0469H310.45V23.0469C311.075 21.9531 312.169 20.9896 313.731 20.1562C315.32 19.2969 317.13 18.6328 319.161 18.1641C321.192 17.6693 323.223 17.4219 325.255 17.4219L325.02 26.4453C323.666 26.5234 322.195 26.6927 320.606 26.9531C319.018 27.2135 317.481 27.5651 315.997 28.0078C314.539 28.4505 313.302 28.9974 312.286 29.6484C311.27 30.2995 310.658 31.0417 310.45 31.875V60H299.825V18.0469ZM366.97 60V11.1719H350.916V2.34375H394.587V11.1719H378.533V60H366.97ZM413.727 60.8984C410.133 60.8984 407.203 59.8568 404.938 57.7734C402.698 55.6901 401.578 52.9167 401.578 49.4531C401.578 47.474 401.982 45.7161 402.789 44.1797C403.596 42.6432 405.068 41.224 407.203 39.9219C409.339 38.5938 412.398 37.3047 416.383 36.0547C419.638 35.013 422.034 34.0495 423.57 33.1641C425.133 32.2786 425.914 31.1068 425.914 29.6484C425.914 27.9557 425.406 26.6927 424.391 25.8594C423.401 25 421.708 24.5703 419.312 24.5703C416.656 24.5703 414.898 25.0911 414.039 26.1328C413.206 27.1745 412.789 28.5026 412.789 30.1172V31.7578H402.828V30.5078C402.828 26.4453 404.182 23.2031 406.891 20.7812C409.599 18.3594 413.818 17.1484 419.547 17.1484C423.74 17.1484 427.06 17.7344 429.508 18.9062C431.956 20.0781 433.714 21.7318 434.781 23.8672C435.849 25.9766 436.383 28.4766 436.383 31.3672V47.9688C436.383 49.8698 436.617 51.1198 437.086 51.7188C437.581 52.2917 438.479 52.5781 439.781 52.5781L439.352 60.3125H437.125C434.208 60.3125 431.943 59.9089 430.328 59.1016C428.714 58.2943 427.529 57.0443 426.773 55.3516C425.654 56.8359 423.961 58.138 421.695 59.2578C419.456 60.3516 416.799 60.8984 413.727 60.8984ZM417.281 53.8281C418.583 53.8281 420.107 53.4635 421.852 52.7344C423.596 52.0052 424.951 50.8854 425.914 49.375V38.75C425.211 39.3229 424.091 39.9609 422.555 40.6641C421.018 41.3411 419.365 42.0052 417.594 42.6562C415.276 43.5156 413.753 44.4661 413.023 45.5078C412.294 46.5495 411.93 47.6693 411.93 48.8672C411.93 50.5599 412.424 51.8099 413.414 52.6172C414.404 53.4245 415.693 53.8281 417.281 53.8281ZM467.084 77.2266C464.48 77.2266 461.876 77.0312 459.272 76.6406C456.694 76.276 454.676 75.7422 453.217 75.0391L455.405 67.8125C457.384 68.3594 459.35 68.763 461.303 69.0234C463.282 69.3099 465.079 69.4531 466.694 69.4531C469.741 69.4531 471.954 68.7891 473.334 67.4609C474.715 66.1589 475.405 64.0625 475.405 61.1719V56.5625C474.155 57.2917 472.657 57.8385 470.913 58.2031C469.168 58.5677 467.488 58.75 465.873 58.75C460.821 58.75 456.824 57.6042 453.881 55.3125C450.965 53.0208 449.506 49.8177 449.506 45.7031V30.6641C449.506 28.2682 450.014 26.0417 451.03 23.9844C452.045 21.9271 453.725 20.2734 456.069 19.0234C458.413 17.7734 461.551 17.1484 465.483 17.1484C467.801 17.1484 470.014 17.5391 472.123 18.3203C474.233 19.0755 475.939 19.987 477.241 21.0547L478.139 18.0078H486.03V60.4688C486.03 65.651 484.558 69.7396 481.616 72.7344C478.673 75.7292 473.829 77.2266 467.084 77.2266ZM467.631 51.6797C469.428 51.6797 470.991 51.4974 472.319 51.1328C473.647 50.7682 474.676 50.3255 475.405 49.8047V27.5C475.405 26.9531 474.702 26.3281 473.295 25.625C471.915 24.9219 470.027 24.5703 467.631 24.5703C465.209 24.5703 463.347 25.026 462.045 25.9375C460.769 26.8229 460.131 28.3203 460.131 30.4297V46.0938C460.131 48.2031 460.821 49.6615 462.202 50.4688C463.608 51.276 465.418 51.6797 467.631 51.6797ZM542.237 61.0156C538.305 61.0156 534.347 60.5469 530.362 59.6094C526.378 58.6719 522.941 57.3958 520.05 55.7812L524.034 47.3047C526.248 48.4766 528.891 49.5443 531.964 50.5078C535.063 51.4453 538.396 51.9141 541.964 51.9141C544.334 51.9141 546.118 51.5755 547.316 50.8984C548.54 50.2214 549.36 49.2839 549.777 48.0859C550.219 46.862 550.441 45.4688 550.441 43.9062C550.441 42.8385 550.258 41.862 549.894 40.9766C549.529 40.0651 548.774 39.2318 547.628 38.4766C546.508 37.6953 544.79 36.9661 542.472 36.2891L532.628 33.3984C529.503 32.4609 527.068 31.2109 525.323 29.6484C523.605 28.0599 522.394 26.2109 521.691 24.1016C521.014 21.9922 520.675 19.7135 520.675 17.2656C520.675 13.6719 521.547 10.7031 523.292 8.35938C525.063 6.01562 527.459 4.27083 530.48 3.125C533.527 1.95312 536.938 1.36719 540.714 1.36719C544.516 1.36719 548.019 1.73177 551.222 2.46094C554.425 3.1901 557.355 4.32292 560.011 5.85938L556.73 14.0234C554.594 13.0078 552.264 12.1615 549.737 11.4844C547.211 10.8073 544.542 10.4688 541.73 10.4688C538.787 10.4688 536.443 10.9245 534.698 11.8359C532.954 12.7214 532.081 14.401 532.081 16.875C532.081 18.8542 532.589 20.3776 533.605 21.4453C534.646 22.513 536.626 23.4896 539.542 24.375L549.347 27.3047C553.227 28.4766 556.144 30.3385 558.097 32.8906C560.05 35.4427 561.027 38.9844 561.027 43.5156C561.027 46.7708 560.376 49.7266 559.073 52.3828C557.771 55.013 555.74 57.1094 552.98 58.6719C550.219 60.2344 546.639 61.0156 542.237 61.0156ZM572.822 78.9453L572.041 70.1562C574.671 69.7656 576.936 68.776 578.838 67.1875C580.765 65.625 582.327 63.2682 583.525 60.1172L584.189 58.3984L568.369 18.0469H578.955L589.384 46.4844L598.213 18.0469H608.798L594.306 59.5312C592.041 66.0156 589.15 70.7161 585.634 73.6328C582.145 76.5755 577.874 78.3464 572.822 78.9453ZM615.984 57.6172L618.133 50.3906C620.372 51.3542 622.716 52.1224 625.164 52.6953C627.638 53.2422 629.904 53.5156 631.961 53.5156C633.888 53.5156 635.32 53.0599 636.258 52.1484C637.195 51.2109 637.664 49.9349 637.664 48.3203C637.664 47.0964 637.391 46.1458 636.844 45.4688C636.323 44.7656 635.411 44.2057 634.109 43.7891L624.891 40.8984C621.583 39.8568 619.305 38.3203 618.055 36.2891C616.831 34.2578 616.219 31.8359 616.219 29.0234C616.219 25.013 617.625 22.0312 620.438 20.0781C623.276 18.125 626.896 17.1484 631.297 17.1484C634.891 17.1484 637.938 17.526 640.438 18.2812C642.938 19.0365 644.943 19.8438 646.453 20.7031L643.953 27.3047C643.146 26.862 642.078 26.4323 640.75 26.0156C639.422 25.599 638.003 25.2604 636.492 25C635.008 24.7135 633.602 24.5703 632.273 24.5703C630.034 24.5703 628.497 24.9609 627.664 25.7422C626.831 26.5234 626.414 27.6042 626.414 28.9844C626.414 29.8698 626.622 30.651 627.039 31.3281C627.456 31.9792 628.198 32.474 629.266 32.8125L637.938 35.5469C641.479 36.6667 643.94 38.2292 645.32 40.2344C646.701 42.2396 647.391 44.8828 647.391 48.1641C647.391 51.7057 646.141 54.7135 643.641 57.1875C641.141 59.6615 637.378 60.8984 632.352 60.8984C628.81 60.8984 625.737 60.625 623.133 60.0781C620.555 59.5573 618.172 58.737 615.984 57.6172ZM660.241 46.4453V24.8047H654.694V18.0469H660.553L661.53 4.57031H670.866V18.0469H680.827V24.8047H670.866V45.6641C670.866 48.2682 671.425 50.0781 672.545 51.0938C673.691 52.0833 675.866 52.5781 679.069 52.5781H681.1L680.709 60.4688H677.819C673.6 60.4688 670.202 60.0521 667.623 59.2188C665.045 58.3854 663.17 56.9531 661.998 54.9219C660.827 52.8646 660.241 50.0391 660.241 46.4453ZM690.356 46.875V30.5078C690.356 26.237 691.971 22.9427 695.2 20.625C698.455 18.3073 702.804 17.1484 708.247 17.1484C714.705 17.1484 719.289 18.3854 721.997 20.8594C724.731 23.3333 726.098 26.6797 726.098 30.8984V41.0547H700.981V47.8906C700.981 50.3646 701.619 51.9271 702.895 52.5781C704.171 53.2031 706.072 53.5156 708.598 53.5156C711.619 53.5156 713.638 53.099 714.653 52.2656C715.695 51.4062 716.216 49.6875 716.216 47.1094H726.059C726.059 52.2917 724.601 55.8854 721.684 57.8906C718.768 59.8958 714.341 60.8984 708.403 60.8984C704.992 60.8984 701.919 60.4818 699.184 59.6484C696.45 58.7891 694.289 57.3438 692.7 55.3125C691.138 53.2812 690.356 50.4688 690.356 46.875ZM716.059 34.5703V29.6484C716.059 28.0859 715.721 26.9531 715.044 26.25C714.393 25.5208 713.494 25.0651 712.348 24.8828C711.229 24.6745 709.953 24.5703 708.52 24.5703C706.385 24.5703 704.588 24.8958 703.13 25.5469C701.697 26.1719 700.981 27.6042 700.981 29.8438V34.5703H716.059ZM738.284 18.0469H748.909V21.7969C749.326 21.3542 750.055 20.7682 751.097 20.0391C752.165 19.3099 753.545 18.6458 755.237 18.0469C756.956 17.4479 758.974 17.1484 761.292 17.1484C764.001 17.1484 766.331 17.5651 768.284 18.3984C770.237 19.2318 771.748 20.5469 772.816 22.3438C774.352 20.8073 776.227 19.5573 778.441 18.5938C780.68 17.6302 783.454 17.1484 786.761 17.1484C790.797 17.1484 794.027 18.2422 796.448 20.4297C798.87 22.5911 800.081 25.4427 800.081 28.9844V60H789.456V30.2344C789.456 28.0208 788.87 26.5885 787.698 25.9375C786.527 25.2865 785.12 24.9609 783.48 24.9609C782.23 24.9609 780.928 25.1823 779.573 25.625C778.245 26.0417 777.099 26.6797 776.136 27.5391C775.198 28.3984 774.678 29.4531 774.573 30.7031V60H763.948V30.2344C763.948 28.0208 763.323 26.5885 762.073 25.9375C760.823 25.2865 759.365 24.9609 757.698 24.9609C756.422 24.9609 755.107 25.1953 753.753 25.6641C752.399 26.1068 751.253 26.7839 750.316 27.6953C749.378 28.6068 748.909 29.7526 748.909 31.1328V60H738.284V18.0469ZM836.797 60V2.34375H861.797C867.37 2.34375 871.693 3.24219 874.766 5.03906C877.839 6.8099 879.987 9.21875 881.211 12.2656C882.435 15.2865 883.047 18.6849 883.047 22.4609V40.1562C883.047 43.9844 882.396 47.3958 881.094 50.3906C879.818 53.3854 877.643 55.7422 874.57 57.4609C871.497 59.1536 867.253 60 861.836 60H836.797ZM848.398 50.9766H860.82C864.909 50.9766 867.695 50.2214 869.18 48.7109C870.69 47.2005 871.445 44.8438 871.445 41.6406V20.9375C871.445 17.8125 870.677 15.4427 869.141 13.8281C867.63 12.1875 864.857 11.3672 860.82 11.3672H848.398V50.9766ZM895.741 46.875V30.5078C895.741 26.237 897.355 22.9427 900.584 20.625C903.84 18.3073 908.189 17.1484 913.631 17.1484C920.09 17.1484 924.673 18.3854 927.381 20.8594C930.116 23.3333 931.483 26.6797 931.483 30.8984V41.0547H906.366V47.8906C906.366 50.3646 907.004 51.9271 908.28 52.5781C909.556 53.2031 911.457 53.5156 913.983 53.5156C917.004 53.5156 919.022 53.099 920.037 52.2656C921.079 51.4062 921.6 49.6875 921.6 47.1094H931.444C931.444 52.2917 929.985 55.8854 927.069 57.8906C924.152 59.8958 919.725 60.8984 913.787 60.8984C910.376 60.8984 907.303 60.4818 904.569 59.6484C901.834 58.7891 899.673 57.3438 898.084 55.3125C896.522 53.2812 895.741 50.4688 895.741 46.875ZM921.444 34.5703V29.6484C921.444 28.0859 921.105 26.9531 920.428 26.25C919.777 25.5208 918.879 25.0651 917.733 24.8828C916.613 24.6745 915.337 24.5703 913.905 24.5703C911.769 24.5703 909.972 24.8958 908.514 25.5469C907.082 26.1719 906.366 27.6042 906.366 29.8438V34.5703H921.444ZM943.669 18.0469H954.294V21.7969C954.71 21.3542 955.44 20.7682 956.481 20.0391C957.549 19.3099 958.929 18.6458 960.622 18.0469C962.341 17.4479 964.359 17.1484 966.677 17.1484C969.385 17.1484 971.716 17.5651 973.669 18.3984C975.622 19.2318 977.132 20.5469 978.2 22.3438C979.736 20.8073 981.611 19.5573 983.825 18.5938C986.065 17.6302 988.838 17.1484 992.145 17.1484C996.182 17.1484 999.411 18.2422 1001.83 20.4297C1004.25 22.5911 1005.47 25.4427 1005.47 28.9844V60H994.841V30.2344C994.841 28.0208 994.255 26.5885 993.083 25.9375C991.911 25.2865 990.505 24.9609 988.864 24.9609C987.614 24.9609 986.312 25.1823 984.958 25.625C983.63 26.0417 982.484 26.6797 981.52 27.5391C980.583 28.3984 980.062 29.4531 979.958 30.7031V60H969.333V30.2344C969.333 28.0208 968.708 26.5885 967.458 25.9375C966.208 25.2865 964.749 24.9609 963.083 24.9609C961.807 24.9609 960.492 25.1953 959.138 25.6641C957.783 26.1068 956.638 26.7839 955.7 27.6953C954.763 28.6068 954.294 29.7526 954.294 31.1328V60H943.669V18.0469ZM1036.05 60.8984C1029.44 60.8984 1024.75 59.6745 1021.99 57.2266C1019.23 54.7786 1017.85 51.4714 1017.85 47.3047V30.7812C1017.85 26.5104 1019.44 23.1771 1022.61 20.7812C1025.82 18.3594 1030.29 17.1484 1036.05 17.1484C1041.78 17.1484 1046.25 18.3594 1049.45 20.7812C1052.65 23.1771 1054.25 26.5104 1054.25 30.7812V47.3047C1054.25 50.0651 1053.68 52.474 1052.53 54.5312C1051.39 56.5625 1049.49 58.138 1046.83 59.2578C1044.2 60.3516 1040.61 60.8984 1036.05 60.8984ZM1036.05 53.5156C1038.32 53.5156 1040.14 53.099 1041.52 52.2656C1042.92 51.4062 1043.63 49.9089 1043.63 47.7734V30.3125C1043.63 28.1771 1042.96 26.6927 1041.64 25.8594C1040.31 25 1038.45 24.5703 1036.05 24.5703C1033.76 24.5703 1031.92 25 1030.54 25.8594C1029.16 26.6927 1028.47 28.1771 1028.47 30.3125V47.7734C1028.47 49.9089 1029.12 51.4062 1030.42 52.2656C1031.73 53.099 1033.6 53.5156 1036.05 53.5156Z"
    fill="url(#paint0_linear_1_92)" />
  <defs>
    <linearGradient id="paint0_linear_1_92" x1="14.5314" y1="-16.102" x2="1052.7" y2="141.948"
      gradientUnits="userSpaceOnUse">
      <stop stop-color="#FF1CF7" />
      <stop offset="1" stop-color="#00F0FF" />
    </linearGradient>
  </defs>
</svg>