<svg width="42" height="36" viewBox="0 0 42 36" fill="#8E8E93" xmlns="http://www.w3.org/2000/svg">
  <path fill-rule="evenodd" clip-rule="evenodd"
    d="M4.07428 4.18663L6.15149 16.0407H18.9682C20.0585 16.0407 20.9424 16.9179 20.9424 18C20.9424 19.0821 20.0585 19.9593 18.9682 19.9593H6.15149L4.07428 31.8133L36.5498 18L4.07428 4.18663ZM2.48724 18L0.0522534 4.10413C-0.144595 2.98076 0.221655 1.83258 1.03403 1.02631C2.05476 0.0132667 3.59412 -0.280969 4.92093 0.283391L40.1988 15.2887C41.2914 15.7536 42 16.82 42 18C42 19.18 41.2914 20.2464 40.1988 20.7113L4.92093 35.7165C3.59412 36.2811 2.05476 35.9866 1.03403 34.9738C0.221655 34.1674 -0.144596 33.0192 0.0522534 31.8959L2.48724 18Z"
  />
</svg>
  